
<svg xmlns="http://www.w3.org/2000/svg" style="overflow: visible;" data-bbox="21.31138545953354 190.6518682075138 469.00292485853674 106.63456067906654" viewBox="21.31 190.65 469 106.63">     <g transform="matrix(0.07789629697799683, 0, 0, 0.07789629697799683, 4.908749103546143, 185.5465545654297)" fill="#20c5a8" data-uid="o_f9bebhgdm_8">             <svg id="Layer_1" data-name="Layer 1" xmlns="http://www.w3.org/2000/svg" viewBox="0 0 1500 1500" width="1500" height="1500" data-uid="o_f9bebhgdm_9">                 <path class="cls-1" d="m611.99 621.53M1289.42 65.55l-167.83 203.9c43.33 8.01 89.08 17.19 137.9 27.55v576.75c0 126.52-55.2 235.37-157.27 310.12-101.9 74.64-235.9 151.05-365.26 198.41-41.63-15.24-83.75-33.49-125.11-53.72l375.9-217.03c70.51-40.7 121.32-107.44 142.37-185.99 21.02-78.55 10.39-161.72-30.31-232.2-40.69-70.49-107.4-121.28-185.94-142.34-78.57-21.06-161.76-10.42-232.25 30.28l-69.67 40.22c-26 15.07-34.95 48.4-19.93 74.43 15.03 26.02 48.37 34.93 74.4 19.91l69.63-40.21c45.43-26.24 99.01-33 149.63-19.44 50.59 13.55 93.6 46.2 119.81 91.61 26.21 45.4 32.99 98.98 19.43 149.56-13.58 50.63-46.23 93.63-91.62 119.84l-722.73 417.27 187.2-231.95c-8.92-6.21-17.62-12.42-26.08-18.65-102.07-74.75-157.26-183.6-157.26-310.12V296.99c237.36-50.37 401.05-72.84 572.92-67.35l-301.24 173.92c-70.48 40.7-121.3 107.44-142.33 185.98-21.05 78.56-10.4 161.72 30.27 232.21 40.71 70.49 107.42 121.28 185.97 142.34 78.54 21.05 161.74 10.42 232.24-30.28l69.67-40.22c26-15.07 34.95-48.41 19.93-74.42-15.03-26.02-48.37-34.94-74.4-19.92l-69.65 40.22c-45.41 26.22-98.99 33-149.61 19.43-50.59-13.54-93.59-46.19-119.81-91.61-26.22-45.4-32.99-98.98-19.43-149.56 13.56-50.62 46.23-93.63 91.62-119.85 231.71-133.76 517.14-298.57 748.84-432.34Z" fill="#20c5a8" fill-rule="evenodd" data-uid="o_f9bebhgdm_10"/>             </svg>     </g>      <path text="SJ Development" fill="#006bff" space="preserve" text-anchor="start" offset="0" font-scale="contain" font-size="43" font-family="Playfair Display" transform="matrix(1.2127208709716797, 0, 0, 1.2127208709716797, 110.31671905517578, 259.48590087890625)" font-style="normal" font-weight="700" data-uid="o_f9bebhgdm_11" d="M 12.21 -31 L 12.21 -31 Q 14.75 -31 16.13 -30.47 Q 17.5 -29.93 18.49 -29.33 L 18.49 -29.33 Q 19.01 -29.03 19.33 -28.87 Q 19.65 -28.72 19.95 -28.72 L 19.95 -28.72 Q 20.64 -28.72 20.9 -30.62 L 20.9 -30.62 L 21.89 -30.62 Q 21.84 -29.8 21.78 -28.66 Q 21.72 -27.52 21.69 -25.67 Q 21.67 -23.82 21.67 -20.81 L 21.67 -20.81 L 20.68 -20.81 Q 20.51 -23.05 19.65 -25.16 Q 18.79 -27.26 17.22 -28.62 Q 15.65 -29.97 13.37 -29.97 L 13.37 -29.97 Q 11.31 -29.97 9.98 -28.81 Q 8.64 -27.65 8.64 -25.59 L 8.64 -25.59 Q 8.64 -23.87 9.5 -22.64 Q 10.36 -21.41 12.02 -20.25 Q 13.67 -19.09 16.04 -17.46 L 16.04 -17.46 Q 18.1 -16.13 19.74 -14.79 Q 21.37 -13.46 22.36 -11.78 Q 23.35 -10.11 23.35 -7.78 L 23.35 -7.78 Q 23.35 -4.95 21.87 -3.1 Q 20.38 -1.25 17.97 -0.32 Q 15.57 0.6 12.69 0.6 L 12.69 0.6 Q 10.02 0.6 8.43 0.09 Q 6.84 -0.43 5.76 -0.99 L 5.76 -0.99 Q 4.82 -1.59 4.3 -1.59 L 4.3 -1.59 Q 3.61 -1.59 3.35 0.3 L 3.35 0.3 L 2.37 0.3 Q 2.45 -0.73 2.47 -2.11 Q 2.49 -3.48 2.52 -5.7 Q 2.54 -7.91 2.54 -11.31 L 2.54 -11.31 L 3.53 -11.31 Q 3.7 -8.47 4.49 -6 Q 5.29 -3.53 6.94 -2.02 Q 8.6 -0.52 11.35 -0.52 L 11.35 -0.52 Q 13.59 -0.52 15.14 -1.72 Q 16.68 -2.92 16.68 -5.33 L 16.68 -5.33 Q 16.68 -8 14.88 -9.74 Q 13.07 -11.48 10.23 -13.33 L 10.23 -13.33 Q 8.21 -14.66 6.45 -16 Q 4.69 -17.33 3.63 -19.05 Q 2.58 -20.77 2.58 -23.13 L 2.58 -23.13 Q 2.58 -25.84 3.93 -27.58 Q 5.29 -29.33 7.5 -30.16 Q 9.72 -31 12.21 -31 Z M 24.122 8.08 L 24.122 8.08 L 24.122 7.22 Q 25.842 7.05 27.052 6.21 Q 28.252 5.38 28.892 3.35 Q 29.542 1.33 29.542 -2.32 L 29.542 -2.32 L 29.542 -25.89 Q 29.542 -27.48 29.302 -28.23 Q 29.072 -28.98 28.382 -29.26 Q 27.692 -29.54 26.312 -29.58 L 26.312 -29.58 L 26.312 -30.44 Q 27.392 -30.4 29.132 -30.36 Q 30.872 -30.32 32.812 -30.32 L 32.812 -30.32 Q 34.742 -30.32 36.572 -30.36 Q 38.402 -30.4 39.602 -30.44 L 39.602 -30.44 L 39.602 -29.58 Q 38.272 -29.54 37.562 -29.26 Q 36.852 -28.98 36.612 -28.23 Q 36.382 -27.48 36.382 -25.89 L 36.382 -25.89 L 36.382 -10.15 Q 36.382 -8.39 36.382 -6.34 Q 36.382 -4.3 36.232 -2.37 Q 36.082 -0.43 35.652 1.08 L 35.652 1.08 Q 34.792 4.04 31.932 6.06 Q 29.072 8.08 24.122 8.08 Z M 65.533 -30.44 L 65.533 -30.44 Q 74.003 -30.44 78.133 -26.6 Q 82.263 -22.75 82.263 -15.57 L 82.263 -15.57 Q 82.263 -10.88 80.243 -7.37 Q 78.213 -3.87 74.373 -1.94 Q 70.523 0 65.143 0 L 65.143 0 Q 64.113 0 62.203 -0.06 Q 60.283 -0.13 58.863 -0.13 L 58.863 -0.13 Q 56.973 -0.13 55.143 -0.11 Q 53.323 -0.09 52.243 0 L 52.243 0 L 52.243 -0.86 Q 53.623 -0.95 54.313 -1.2 Q 54.993 -1.46 55.233 -2.24 Q 55.473 -3.01 55.473 -4.56 L 55.473 -4.56 L 55.473 -25.89 Q 55.473 -27.48 55.233 -28.23 Q 54.993 -28.98 54.283 -29.26 Q 53.583 -29.54 52.243 -29.58 L 52.243 -29.58 L 52.243 -30.44 Q 53.323 -30.4 55.143 -30.34 Q 56.973 -30.27 58.783 -30.32 L 58.783 -30.32 Q 60.333 -30.36 62.283 -30.4 Q 64.243 -30.44 65.533 -30.44 Z M 65.493 -29.67 L 65.493 -29.67 Q 63.513 -29.67 62.913 -28.94 Q 62.303 -28.21 62.303 -25.97 L 62.303 -25.97 L 62.303 -4.47 Q 62.303 -2.24 62.933 -1.51 Q 63.553 -0.77 65.533 -0.77 L 65.533 -0.77 Q 69.143 -0.77 71.233 -2.47 Q 73.313 -4.17 74.223 -7.44 Q 75.123 -10.71 75.123 -15.39 L 75.123 -15.39 Q 75.123 -22.62 72.883 -26.14 Q 70.653 -29.67 65.493 -29.67 Z M 96.281 -22.83 L 96.281 -22.83 Q 100.061 -22.83 102.211 -20.6 Q 104.361 -18.36 104.361 -13.29 L 104.361 -13.29 L 90.211 -13.29 L 90.131 -14.1 L 98.941 -14.1 Q 98.991 -16.21 98.681 -18 Q 98.381 -19.78 97.741 -20.86 Q 97.091 -21.93 96.021 -21.93 L 96.021 -21.93 Q 94.511 -21.93 93.461 -20.04 Q 92.411 -18.15 92.191 -13.76 L 92.191 -13.76 L 92.321 -13.5 Q 92.281 -12.99 92.261 -12.43 Q 92.231 -11.87 92.231 -11.27 L 92.231 -11.27 Q 92.231 -8.3 93.071 -6.45 Q 93.911 -4.6 95.201 -3.76 Q 96.491 -2.92 97.821 -2.92 L 97.821 -2.92 Q 99.111 -2.92 100.641 -3.57 Q 102.171 -4.21 103.501 -6.36 L 103.501 -6.36 L 104.271 -6.11 Q 103.761 -4.47 102.641 -2.92 Q 101.521 -1.38 99.801 -0.39 Q 98.081 0.6 95.671 0.6 L 95.671 0.6 Q 92.751 0.6 90.511 -0.65 Q 88.281 -1.89 87.011 -4.43 Q 85.741 -6.97 85.741 -10.88 L 85.741 -10.88 Q 85.741 -14.88 87.101 -17.54 Q 88.451 -20.21 90.841 -21.52 Q 93.221 -22.83 96.281 -22.83 Z M 127.193 -22.23 L 127.193 -22.23 L 127.193 -21.37 Q 126.373 -21.16 125.643 -20.36 Q 124.913 -19.57 124.223 -17.67 L 124.223 -17.67 L 117.953 0.09 Q 117.263 0.04 116.553 0.04 Q 115.843 0.04 115.153 0.09 L 115.153 0.09 L 107.503 -18.92 Q 106.813 -20.6 106.143 -20.96 Q 105.483 -21.33 105.003 -21.33 L 105.003 -21.33 L 105.003 -22.23 Q 106.383 -22.15 107.863 -22.08 Q 109.353 -22.02 111.113 -22.02 L 111.113 -22.02 Q 112.443 -22.02 113.933 -22.08 Q 115.413 -22.15 116.703 -22.23 L 116.703 -22.23 L 116.703 -21.33 Q 115.803 -21.33 115.093 -21.24 Q 114.383 -21.16 114.123 -20.68 Q 113.863 -20.21 114.213 -19.01 L 114.213 -19.01 L 119.243 -5.68 L 118.813 -5.07 L 122.203 -14.49 Q 123.413 -17.97 122.593 -19.59 Q 121.773 -21.2 119.753 -21.37 L 119.753 -21.37 L 119.753 -22.23 Q 120.743 -22.19 121.883 -22.15 Q 123.023 -22.1 123.883 -22.1 L 123.883 -22.1 Q 124.743 -22.1 125.693 -22.15 Q 126.633 -22.19 127.193 -22.23 Z M 138.722 -22.83 L 138.722 -22.83 Q 142.502 -22.83 144.652 -20.6 Q 146.802 -18.36 146.802 -13.29 L 146.802 -13.29 L 132.652 -13.29 L 132.572 -14.1 L 141.382 -14.1 Q 141.432 -16.21 141.122 -18 Q 140.822 -19.78 140.182 -20.86 Q 139.532 -21.93 138.462 -21.93 L 138.462 -21.93 Q 136.952 -21.93 135.902 -20.04 Q 134.852 -18.15 134.632 -13.76 L 134.632 -13.76 L 134.762 -13.5 Q 134.722 -12.99 134.702 -12.43 Q 134.672 -11.87 134.672 -11.27 L 134.672 -11.27 Q 134.672 -8.3 135.512 -6.45 Q 136.352 -4.6 137.642 -3.76 Q 138.932 -2.92 140.262 -2.92 L 140.262 -2.92 Q 141.552 -2.92 143.082 -3.57 Q 144.612 -4.21 145.942 -6.36 L 145.942 -6.36 L 146.712 -6.11 Q 146.202 -4.47 145.082 -2.92 Q 143.962 -1.38 142.242 -0.39 Q 140.522 0.6 138.112 0.6 L 138.112 0.6 Q 135.192 0.6 132.952 -0.65 Q 130.722 -1.89 129.452 -4.43 Q 128.182 -6.97 128.182 -10.88 L 128.182 -10.88 Q 128.182 -14.88 129.542 -17.54 Q 130.892 -20.21 133.282 -21.52 Q 135.662 -22.83 138.722 -22.83 Z M 158.064 -33.67 L 158.064 -33.67 L 158.064 -4 Q 158.064 -2.19 158.694 -1.55 Q 159.314 -0.9 160.824 -0.9 L 160.824 -0.9 L 160.824 0 Q 160.004 -0.04 158.374 -0.11 Q 156.734 -0.17 155.054 -0.17 L 155.054 -0.17 Q 153.384 -0.17 151.684 -0.11 Q 149.984 -0.04 149.124 0 L 149.124 0 L 149.124 -0.9 Q 150.634 -0.9 151.254 -1.55 Q 151.874 -2.19 151.874 -4 L 151.874 -4 L 151.874 -28.51 Q 151.874 -30.44 151.294 -31.37 Q 150.714 -32.29 149.124 -32.29 L 149.124 -32.29 L 149.124 -33.2 Q 150.504 -33.07 151.794 -33.07 L 151.794 -33.07 Q 153.554 -33.07 155.144 -33.22 Q 156.734 -33.37 158.064 -33.67 Z M 173.337 -22.83 L 173.337 -22.83 Q 176.477 -22.83 178.837 -21.67 Q 181.207 -20.51 182.537 -17.93 Q 183.867 -15.35 183.867 -11.09 L 183.867 -11.09 Q 183.867 -6.84 182.537 -4.28 Q 181.207 -1.72 178.837 -0.56 Q 176.477 0.6 173.337 0.6 L 173.337 0.6 Q 170.277 0.6 167.897 -0.56 Q 165.507 -1.72 164.157 -4.28 Q 162.797 -6.84 162.797 -11.09 L 162.797 -11.09 Q 162.797 -15.35 164.157 -17.93 Q 165.507 -20.51 167.897 -21.67 Q 170.277 -22.83 173.337 -22.83 Z M 173.337 -21.97 L 173.337 -21.97 Q 171.617 -21.97 170.457 -19.41 Q 169.287 -16.86 169.287 -11.09 L 169.287 -11.09 Q 169.287 -5.33 170.457 -2.8 Q 171.617 -0.26 173.337 -0.26 L 173.337 -0.26 Q 175.097 -0.26 176.237 -2.8 Q 177.377 -5.33 177.377 -11.09 L 177.377 -11.09 Q 177.377 -16.86 176.237 -19.41 Q 175.097 -21.97 173.337 -21.97 Z M 195.302 -22.7 L 195.302 -22.7 L 195.302 3.53 Q 195.302 5.55 196.342 6.21 Q 197.372 6.88 199.172 6.88 L 199.172 6.88 L 199.172 7.78 Q 198.062 7.74 196.102 7.68 Q 194.142 7.61 191.952 7.61 L 191.952 7.61 Q 190.362 7.61 188.832 7.68 Q 187.312 7.74 186.532 7.78 L 186.532 7.78 L 186.532 6.88 Q 187.952 6.88 188.532 6.28 Q 189.112 5.68 189.112 3.96 L 189.112 3.96 L 189.112 -17.54 Q 189.112 -19.48 188.512 -20.4 Q 187.912 -21.33 186.362 -21.33 L 186.362 -21.33 L 186.362 -22.23 Q 187.742 -22.1 189.032 -22.1 L 189.032 -22.1 Q 190.792 -22.1 192.382 -22.25 Q 193.972 -22.4 195.302 -22.7 Z M 201.972 -22.83 L 201.972 -22.83 Q 205.242 -22.83 207.452 -20.17 Q 209.672 -17.5 209.672 -12.13 L 209.672 -12.13 Q 209.672 -7.96 208.422 -5.12 Q 207.172 -2.28 204.962 -0.84 Q 202.742 0.6 199.692 0.6 L 199.692 0.6 Q 198.012 0.6 196.642 0.02 Q 195.262 -0.56 194.532 -1.63 L 194.532 -1.63 L 194.962 -2.19 Q 195.392 -1.42 196.192 -0.99 Q 196.982 -0.56 198.012 -0.56 L 198.012 -0.56 Q 199.952 -0.56 201.072 -1.87 Q 202.182 -3.18 202.682 -5.57 Q 203.172 -7.96 203.172 -11.27 L 203.172 -11.27 Q 203.172 -14.96 202.702 -17.07 Q 202.232 -19.18 201.412 -20.08 Q 200.592 -20.98 199.432 -20.98 L 199.432 -20.98 Q 197.882 -20.98 196.622 -19.78 Q 195.352 -18.58 195.182 -16.34 L 195.182 -16.34 L 194.962 -17.85 Q 195.732 -20.3 197.602 -21.56 Q 199.482 -22.83 201.972 -22.83 Z M 227.942 -22.83 L 227.942 -22.83 Q 229.752 -22.83 230.872 -22.38 Q 231.982 -21.93 232.672 -21.16 L 232.672 -21.16 Q 233.362 -20.34 233.662 -19.03 Q 233.962 -17.72 233.962 -15.57 L 233.962 -15.57 L 233.962 -4 Q 233.962 -2.19 234.522 -1.55 Q 235.082 -0.9 236.462 -0.9 L 236.462 -0.9 L 236.462 0 Q 235.682 -0.04 234.112 -0.11 Q 232.542 -0.17 231.042 -0.17 L 231.042 -0.17 Q 229.492 -0.17 227.982 -0.11 Q 226.482 -0.04 225.712 0 L 225.712 0 L 225.712 -0.9 Q 226.872 -0.9 227.322 -1.55 Q 227.772 -2.19 227.772 -4 L 227.772 -4 L 227.772 -17.37 Q 227.772 -18.45 227.602 -19.24 Q 227.432 -20.04 226.932 -20.49 Q 226.442 -20.94 225.452 -20.94 L 225.452 -20.94 Q 224.332 -20.94 223.382 -20.3 Q 222.442 -19.65 221.862 -18.51 Q 221.282 -17.37 221.282 -15.95 L 221.282 -15.95 L 221.282 -4 Q 221.282 -2.19 221.752 -1.55 Q 222.222 -0.9 223.342 -0.9 L 223.342 -0.9 L 223.342 0 Q 222.652 -0.04 221.212 -0.11 Q 219.772 -0.17 218.272 -0.17 L 218.272 -0.17 Q 216.632 -0.17 214.912 -0.11 Q 213.192 -0.04 212.332 0 L 212.332 0 L 212.332 -0.9 Q 213.842 -0.9 214.462 -1.55 Q 215.082 -2.19 215.082 -4 L 215.082 -4 L 215.082 -17.54 Q 215.082 -19.48 214.502 -20.4 Q 213.922 -21.33 212.332 -21.33 L 212.332 -21.33 L 212.332 -22.23 Q 213.712 -22.1 215.002 -22.1 L 215.002 -22.1 Q 216.802 -22.1 218.372 -22.25 Q 219.942 -22.4 221.282 -22.7 L 221.282 -22.7 L 221.282 -18.83 Q 222.312 -20.98 224.072 -21.91 Q 225.832 -22.83 227.942 -22.83 Z M 240.882 -22.83 L 240.882 -22.83 Q 242.692 -22.83 243.812 -22.38 Q 244.932 -21.93 245.612 -21.16 L 245.612 -21.16 Q 246.302 -20.34 246.602 -19.03 Q 246.902 -17.72 246.902 -15.57 L 246.902 -15.57 L 246.902 -4 Q 246.902 -2.19 247.532 -1.55 Q 248.152 -0.9 249.662 -0.9 L 249.662 -0.9 L 249.662 0 Q 248.842 -0.04 247.212 -0.11 Q 245.572 -0.17 243.982 -0.17 L 243.982 -0.17 Q 242.432 -0.17 240.932 -0.11 Q 239.422 -0.04 238.652 0 L 238.652 0 L 238.652 -0.9 Q 239.812 -0.9 240.262 -1.55 Q 240.712 -2.19 240.712 -4 L 240.712 -4 L 240.712 -17.37 Q 240.712 -18.45 240.522 -19.24 Q 240.332 -20.04 239.792 -20.49 Q 239.252 -20.94 238.132 -20.94 L 238.132 -20.94 Q 236.462 -20.94 235.212 -19.46 Q 233.962 -17.97 233.922 -15.82 L 233.922 -15.82 L 233.702 -18.45 Q 234.862 -21.03 236.782 -21.93 Q 238.692 -22.83 240.882 -22.83 Z M 262.347 -22.83 L 262.347 -22.83 Q 266.127 -22.83 268.277 -20.6 Q 270.427 -18.36 270.427 -13.29 L 270.427 -13.29 L 256.277 -13.29 L 256.197 -14.1 L 265.007 -14.1 Q 265.057 -16.21 264.747 -18 Q 264.447 -19.78 263.807 -20.86 Q 263.157 -21.93 262.087 -21.93 L 262.087 -21.93 Q 260.577 -21.93 259.527 -20.04 Q 258.477 -18.15 258.257 -13.76 L 258.257 -13.76 L 258.387 -13.5 Q 258.347 -12.99 258.327 -12.43 Q 258.297 -11.87 258.297 -11.27 L 258.297 -11.27 Q 258.297 -8.3 259.137 -6.45 Q 259.977 -4.6 261.267 -3.76 Q 262.557 -2.92 263.887 -2.92 L 263.887 -2.92 Q 265.177 -2.92 266.707 -3.57 Q 268.237 -4.21 269.567 -6.36 L 269.567 -6.36 L 270.337 -6.11 Q 269.827 -4.47 268.707 -2.92 Q 267.587 -1.38 265.867 -0.39 Q 264.147 0.6 261.737 0.6 L 261.737 0.6 Q 258.817 0.6 256.577 -0.65 Q 254.347 -1.89 253.077 -4.43 Q 251.807 -6.97 251.807 -10.88 L 251.807 -10.88 Q 251.807 -14.88 253.167 -17.54 Q 254.517 -20.21 256.907 -21.52 Q 259.287 -22.83 262.347 -22.83 Z M 288.661 -22.83 L 288.661 -22.83 Q 290.461 -22.83 291.601 -22.38 Q 292.741 -21.93 293.391 -21.16 L 293.391 -21.16 Q 294.081 -20.34 294.401 -19.05 Q 294.721 -17.76 294.721 -15.57 L 294.721 -15.57 L 294.721 -4 Q 294.721 -2.19 295.341 -1.55 Q 295.971 -0.9 297.471 -0.9 L 297.471 -0.9 L 297.471 0 Q 296.661 -0.04 295.021 -0.11 Q 293.391 -0.17 291.801 -0.17 L 291.801 -0.17 Q 290.161 -0.17 288.591 -0.11 Q 287.021 -0.04 286.211 0 L 286.211 0 L 286.211 -0.9 Q 287.501 -0.9 288.011 -1.55 Q 288.531 -2.19 288.531 -4 L 288.531 -4 L 288.531 -17.37 Q 288.531 -18.45 288.311 -19.24 Q 288.101 -20.04 287.541 -20.49 Q 286.981 -20.94 285.861 -20.94 L 285.861 -20.94 Q 284.061 -20.94 282.831 -19.52 Q 281.611 -18.1 281.611 -15.95 L 281.611 -15.95 L 281.611 -4 Q 281.611 -2.19 282.141 -1.55 Q 282.681 -0.9 283.931 -0.9 L 283.931 -0.9 L 283.931 0 Q 283.151 -0.04 281.671 -0.11 Q 280.191 -0.17 278.601 -0.17 L 278.601 -0.17 Q 276.961 -0.17 275.241 -0.11 Q 273.521 -0.04 272.661 0 L 272.661 0 L 272.661 -0.9 Q 274.171 -0.9 274.791 -1.55 Q 275.411 -2.19 275.411 -4 L 275.411 -4 L 275.411 -17.54 Q 275.411 -19.48 274.831 -20.4 Q 274.251 -21.33 272.661 -21.33 L 272.661 -21.33 L 272.661 -22.23 Q 274.041 -22.1 275.331 -22.1 L 275.331 -22.1 Q 277.131 -22.1 278.701 -22.25 Q 280.271 -22.4 281.611 -22.7 L 281.611 -22.7 L 281.611 -18.83 Q 282.681 -21.03 284.531 -21.93 Q 286.381 -22.83 288.661 -22.83 Z M 307.793 -29.28 L 307.793 -29.28 L 307.793 -22.23 L 312.873 -22.23 L 312.873 -21.37 L 307.793 -21.37 L 307.793 -4 Q 307.793 -2.71 308.263 -2.17 Q 308.743 -1.63 309.683 -1.63 L 309.683 -1.63 Q 310.463 -1.63 311.233 -2.21 Q 312.013 -2.8 312.613 -4.21 L 312.613 -4.21 L 313.343 -3.83 Q 312.653 -1.89 311.253 -0.65 Q 309.863 0.6 307.453 0.6 L 307.453 0.6 Q 306.033 0.6 304.953 0.24 Q 303.883 -0.13 303.153 -0.86 L 303.153 -0.86 Q 302.203 -1.81 301.903 -3.2 Q 301.603 -4.6 301.603 -6.84 L 301.603 -6.84 L 301.603 -21.37 L 297.993 -21.37 L 297.993 -22.23 L 301.603 -22.23 L 301.603 -27.91 Q 303.413 -27.91 304.933 -28.23 Q 306.463 -28.55 307.793 -29.28 Z">     </path> </svg>