<svg xmlns="http://www.w3.org/2000/svg" version="1.1" xmlns:xlink="http://www.w3.org/1999/xlink" xmlns:svgjs="http://svgjs.dev/svgjs" width="2000" height="272" viewBox="0 0 2000 272"><g transform="matrix(1,0,0,1,-1.2121212121212466,1.2394659348911148)"><svg viewBox="0 0 396 54" data-background-color="#ffffff" preserveAspectRatio="xMidYMid meet" height="272" width="2000" xmlns="http://www.w3.org/2000/svg" xmlns:xlink="http://www.w3.org/1999/xlink"><g id="tight-bounds" transform="matrix(1,0,0,1,0.2400000000000091,-0.24607044295632363)"><svg viewBox="0 0 395.52 54.49214088591265" height="54.49214088591265" width="395.52"><g><svg viewBox="0 0 467.70471312543845 64.43727528478144" height="54.49214088591265" width="395.52"><g transform="matrix(1,0,0,1,72.18471312543846,15.809858603739983)"><svg viewBox="0 0 395.52 32.81755807730147" height="32.81755807730147" width="395.52"><g id="textblocktransform"><svg viewBox="0 0 395.52 32.81755807730147" height="32.81755807730147" width="395.52" id="textblock"><g><svg viewBox="0 0 395.52 32.81755807730147" height="32.81755807730147" width="395.52"><g transform="matrix(1,0,0,1,0,0)"><svg width="395.52" viewBox="1.5 -33.900001525878906 419.3825476074219 34.80000305175781" height="32.81755807730147" data-palette-color="#003049"><g transform="matrix(1,0,0,1,0,0)"><g><svg width="16.0750390625" viewBox="1.7799999713897705 -36.36000061035156 74.20999908447266 36.36000061035156" height="7.876000000000001" data-palette-color="#003049" id="scriptelement" x="404.8075000324589" y="-33.900001525878906"><path d="M12.91-30.02L1.78-30.02 1.78-36.36 31.64-36.36 31.64-30.02 20.51-30.02 20.51 0 12.91 0 12.91-30.02ZM36.57 0L36.57-36.36 46.06-36.36 56.07-11.93 56.5-11.93 66.51-36.36 75.99-36.36 75.99 0 68.53 0 68.53-23.67 68.23-23.67 58.82-0.18 53.74-0.18 44.33-23.76 44.03-23.76 44.03 0 36.57 0Z" opacity="1" transform="matrix(1,0,0,1,0,0)" fill="#003049" class="undefined-123" data-fill-palette-color="primary" id="p-123"></path></svg></g></g><path d="M11.85 0.9L11.85 0.9Q9.1 0.9 6.25 0.23 3.4-0.45 1.5-1.55L1.5-1.55 1.75-8.35 2.25-8.35 3.8-5.1Q4.5-3.7 5.3-2.63 6.1-1.55 7.5-0.95L7.5-0.95Q8.5-0.45 9.43-0.28 10.35-0.1 11.5-0.1L11.5-0.1Q14.55-0.1 16.32-1.75 18.1-3.4 18.1-6L18.1-6Q18.1-8.45 16.9-9.83 15.7-11.2 13.05-12.5L13.05-12.5 11-13.4Q6.7-15.3 4.28-17.78 1.85-20.25 1.85-24.35L1.85-24.35Q1.85-27.3 3.38-29.45 4.9-31.6 7.63-32.75 10.35-33.9 14-33.9L14-33.9Q16.65-33.9 19.03-33.2 21.4-32.5 23.15-31.3L23.15-31.3 22.85-25.3 22.35-25.3 20.3-29.05Q19.45-30.8 18.6-31.53 17.75-32.25 16.65-32.55L16.65-32.55Q16-32.75 15.45-32.83 14.9-32.9 14.05-32.9L14.05-32.9Q11.5-32.9 9.75-31.43 8-29.95 8-27.45L8-27.45Q8-24.9 9.35-23.38 10.7-21.85 13.3-20.65L13.3-20.65 15.6-19.65Q20.4-17.55 22.5-15.18 24.6-12.8 24.6-9.05L24.6-9.05Q24.6-4.65 21.28-1.88 17.95 0.9 11.85 0.9ZM31.5 0.9L31.5 0.9Q29.05 0.9 27.72-0.05 26.4-1 26.4-2.6L26.4-2.6Q26.4-4 27.37-4.75 28.35-5.5 29.65-5.5L29.65-5.5Q30.95-5.5 31.95-4.93 32.95-4.35 33.8-2.95L33.8-2.95 34.7-1.4Q34.95-1.05 35.32-1.05 35.7-1.05 35.85-1.5L35.85-1.5Q36.15-2.5 36.27-4.42 36.4-6.35 36.4-9.1L36.4-9.1Q36.4-12.25 36.25-17.2 36.1-22.15 35.95-29.4L35.95-29.4Q35.95-31.55 34.35-32.1L34.35-32.1 33.2-32.5 33.2-33 46.3-33 46.3-32.5 45.2-32.1Q44.3-31.75 43.97-31.18 43.65-30.6 43.65-29.55L43.65-29.55 43.65-19.65Q43.65-14.75 43.2-11.55 42.75-8.35 41.75-6L41.75-6Q40.5-2.65 37.67-0.88 34.85 0.9 31.5 0.9ZM71.69 0L59.39 0 59.39-0.5 60.44-0.9Q62.04-1.55 62.04-3.45L62.04-3.45 62.04-29.55Q62.04-31.55 60.44-32.1L60.44-32.1 59.39-32.5 59.39-33 72.59-33Q77.89-33 81.72-31.03 85.54-29.05 87.62-25.38 89.69-21.7 89.69-16.55L89.69-16.55Q89.69-11.3 87.44-7.6 85.19-3.9 81.17-1.95 77.14 0 71.69 0L71.69 0ZM69.54-32L69.54-1 71.69-1Q75.29-1 77.49-2.43 79.69-3.85 80.72-7.23 81.74-10.6 81.74-16.5L81.74-16.5Q81.74-22.4 80.72-25.78 79.69-29.15 77.54-30.58 75.39-32 71.89-32L71.89-32 69.54-32ZM116.74 0L91.79 0 91.79-0.5 92.94-0.95Q93.79-1.3 94.11-1.88 94.44-2.45 94.44-3.45L94.44-3.45 94.44-29.55Q94.44-30.55 94.16-31.13 93.89-31.7 92.94-32.05L92.94-32.05 91.79-32.5 91.79-33 115.74-33 116.04-25.3 115.54-25.3 113.39-30Q112.94-30.9 112.44-31.45 111.94-32 110.94-32L110.94-32 101.94-32 101.94-17.55 107.29-17.55Q108.29-17.55 108.81-18.07 109.34-18.6 109.74-19.5L109.74-19.5 110.74-21.5 111.24-21.5 111.24-12.5 110.74-12.5 109.74-14.6Q109.29-15.5 108.79-16.03 108.29-16.55 107.29-16.55L107.29-16.55 101.94-16.55 101.94-1 112.04-1Q113.04-1 113.59-1.53 114.14-2.05 114.49-3L114.49-3 116.54-7.7 117.04-7.7 116.74 0ZM136.34 0.15L132.64 0.15 121.94-29.65Q121.59-30.65 121.01-31.23 120.44-31.8 119.44-32.1L119.44-32.1 118.24-32.5 118.24-33 132.64-33 132.64-32.5 131.09-32.05Q129.94-31.75 129.81-31 129.69-30.25 130.04-29.15L130.04-29.15 137.44-7.2 144.89-29.2Q145.29-30.35 145.26-31.1 145.24-31.85 144.09-32.15L144.09-32.15 142.79-32.5 142.79-33 149.79-33 149.79-32.5 148.44-32.1Q147.49-31.85 147.09-31.23 146.69-30.6 146.34-29.6L146.34-29.6 136.34 0.15ZM176.09 0L151.13 0 151.13-0.5 152.28-0.95Q153.13-1.3 153.46-1.88 153.78-2.45 153.78-3.45L153.78-3.45 153.78-29.55Q153.78-30.55 153.51-31.13 153.23-31.7 152.28-32.05L152.28-32.05 151.13-32.5 151.13-33 175.09-33 175.38-25.3 174.88-25.3 172.74-30Q172.28-30.9 171.78-31.45 171.28-32 170.28-32L170.28-32 161.28-32 161.28-17.55 166.63-17.55Q167.63-17.55 168.16-18.07 168.69-18.6 169.09-19.5L169.09-19.5 170.09-21.5 170.59-21.5 170.59-12.5 170.09-12.5 169.09-14.6Q168.63-15.5 168.13-16.03 167.63-16.55 166.63-16.55L166.63-16.55 161.28-16.55 161.28-1 171.38-1Q172.38-1 172.94-1.53 173.49-2.05 173.84-3L173.84-3 175.88-7.7 176.38-7.7 176.09 0ZM203.18 0L178.88 0 178.88-0.5 179.93-0.9Q180.98-1.3 181.26-1.88 181.53-2.45 181.53-3.45L181.53-3.45 181.53-29.55Q181.53-30.55 181.23-31.15 180.93-31.75 179.93-32.1L179.93-32.1 178.88-32.5 178.88-33 191.63-33 191.63-32.5 190.73-32.1Q189.78-31.75 189.43-31.13 189.08-30.5 189.08-29.5L189.08-29.5 189.08-1 196.78-1Q198.63-1 199.51-1.9 200.38-2.8 201.18-4.5L201.18-4.5 203.13-8.7 203.63-8.7 203.18 0ZM221.53 0.9L221.53 0.9Q218.48 0.9 215.66-0.2 212.83-1.3 210.6-3.48 208.38-5.65 207.08-8.9 205.78-12.15 205.78-16.5L205.78-16.5Q205.78-20.8 207.08-24.05 208.38-27.3 210.63-29.48 212.88-31.65 215.71-32.77 218.53-33.9 221.53-33.9L221.53-33.9Q224.58-33.9 227.41-32.83 230.23-31.75 232.46-29.58 234.68-27.4 235.98-24.13 237.28-20.85 237.28-16.5L237.28-16.5Q237.28-12.25 235.98-8.97 234.68-5.7 232.46-3.53 230.23-1.35 227.41-0.23 224.58 0.9 221.53 0.9ZM221.53-0.15L221.53-0.15Q224.28-0.15 225.98-1.63 227.68-3.1 228.46-6.68 229.23-10.25 229.23-16.5L229.23-16.5Q229.23-22.8 228.46-26.38 227.68-29.95 225.98-31.43 224.28-32.9 221.53-32.9L221.53-32.9Q218.83-32.9 217.13-31.43 215.43-29.95 214.66-26.38 213.88-22.8 213.88-16.5L213.88-16.5Q213.88-10.25 214.66-6.68 215.43-3.1 217.13-1.63 218.83-0.15 221.53-0.15ZM252.98 0L239.38 0 239.38-0.5 240.38-0.85Q241.38-1.15 241.7-1.75 242.03-2.35 242.03-3.35L242.03-3.35 242.03-29.55Q242.03-30.55 241.68-31.15 241.33-31.75 240.33-32.1L240.33-32.1 239.38-32.5 239.38-33 251.53-33Q258.98-33 262.3-30.28 265.63-27.55 265.63-23.1L265.63-23.1Q265.63-20.25 264.25-17.88 262.88-15.5 259.73-14.1 256.58-12.7 251.23-12.7L251.23-12.7 249.53-12.7 249.53-3.5Q249.53-1.55 251.48-0.95L251.48-0.95 252.98-0.5 252.98 0ZM249.53-32L249.53-13.7 251.43-13.7Q253.88-13.7 255.43-14.5 256.98-15.3 257.73-17.3 258.48-19.3 258.48-22.85L258.48-22.85Q258.48-26.45 257.65-28.45 256.83-30.45 255.23-31.23 253.63-32 251.23-32L251.23-32 249.53-32ZM274.13 0L267.53 0 267.53-0.5 268.53-0.85Q270.23-1.4 270.23-3.7L270.23-3.7 270.23-29.3Q270.23-30.3 270-30.9 269.78-31.5 268.83-31.9L268.83-31.9 267.53-32.5 267.53-33 277.18-33 286.43-8.8 295.13-33 304.98-33 304.98-32.5 304.18-32.2Q303.23-31.85 302.88-31.23 302.53-30.6 302.53-29.6L302.53-29.6 302.53-3.45Q302.53-2.45 302.78-1.9 303.03-1.35 303.98-0.95L303.98-0.95 304.98-0.5 304.98 0 292.53 0 292.53-0.5 293.58-0.95Q294.53-1.35 294.78-1.9 295.03-2.45 295.03-3.45L295.03-3.45 295.03-14.7 295.13-29 284.68 0 282.18 0 271.28-28.65 271.43-16.2 271.43-3.6Q271.43-2.5 271.75-1.83 272.08-1.15 273.03-0.85L273.03-0.85 274.13-0.5 274.13 0ZM332.12 0L307.17 0 307.17-0.5 308.32-0.95Q309.17-1.3 309.5-1.88 309.82-2.45 309.82-3.45L309.82-3.45 309.82-29.55Q309.82-30.55 309.55-31.13 309.27-31.7 308.32-32.05L308.32-32.05 307.17-32.5 307.17-33 331.12-33 331.42-25.3 330.92-25.3 328.77-30Q328.32-30.9 327.82-31.45 327.32-32 326.32-32L326.32-32 317.32-32 317.32-17.55 322.67-17.55Q323.67-17.55 324.2-18.07 324.72-18.6 325.12-19.5L325.12-19.5 326.12-21.5 326.62-21.5 326.62-12.5 326.12-12.5 325.12-14.6Q324.67-15.5 324.17-16.03 323.67-16.55 322.67-16.55L322.67-16.55 317.32-16.55 317.32-1 327.42-1Q328.42-1 328.97-1.53 329.52-2.05 329.87-3L329.87-3 331.92-7.7 332.42-7.7 332.12 0ZM343.17 0L335.57 0 335.57-0.5 337.22-1Q338.12-1.25 338.52-1.98 338.92-2.7 338.92-3.7L338.92-3.7 338.92-27.75Q338.37-28.95 338.05-29.55 337.72-30.15 337.32-30.58 336.92-31 336.22-31.65L336.22-31.65 335.37-32.5 335.37-33 344.22-33 360.82-10.35 360.82-29.2Q360.82-30.2 360.5-31 360.17-31.8 359.17-32.05L359.17-32.05 357.52-32.5 357.52-33 364.67-33 364.67-32.5 363.32-32.05Q362.42-31.75 362.22-31 362.02-30.25 362.02-29.25L362.02-29.25 362.02 0.15 359.22 0.15 340.12-26.1 340.12-3.7Q340.12-2.7 340.42-2 340.72-1.3 341.67-1L341.67-1 343.17-0.5 343.17 0ZM390.02 0L374.27 0 374.27-0.5 376.32-1Q378.37-1.45 378.37-3.5L378.37-3.5 378.37-32 374.12-32Q372.27-32 371.47-31.03 370.67-30.05 369.77-28.35L369.77-28.35 367.97-24.85 367.47-24.85 367.72-33 396.57-33 396.77-24.85 396.27-24.85 394.47-28.35Q393.62-30.05 392.82-31.03 392.02-32 390.17-32L390.17-32 385.92-32 385.92-3.5Q385.92-1.45 387.97-1L387.97-1 390.02-0.5 390.02 0Z" opacity="1" transform="matrix(1,0,0,1,0,0)" fill="#003049" class="wordmark-text-0" data-fill-palette-color="primary" id="text-0"></path></svg></g></svg></g></svg></g></svg></g><g><svg viewBox="0 0 64.43727528478144 64.43727528478144" height="64.43727528478144" width="64.43727528478144"><g><svg xmlns="http://www.w3.org/2000/svg" xmlns:xlink="http://www.w3.org/1999/xlink" version="1.0" x="0" y="0" viewBox="1 1 48 48" enable-background="new 0 0 50 50" xml:space="preserve" height="64.43727528478144" width="64.43727528478144" class="icon-icon-0" data-fill-palette-color="accent" id="icon-0"><g fill="#780000" data-fill-palette-color="accent"><g fill="#780000" data-fill-palette-color="accent"><rect x="1" y="1" fill="#780000" width="23" height="5" data-fill-palette-color="accent"></rect><rect x="1" y="10" fill="#780000" width="23" height="5" data-fill-palette-color="accent"></rect><rect x="1" y="19" fill="#780000" width="23" height="5" data-fill-palette-color="accent"></rect></g><g fill="#780000" data-fill-palette-color="accent"><rect x="26" y="26" fill="#780000" width="23" height="5" data-fill-palette-color="accent"></rect><rect x="26" y="35" fill="#780000" width="23" height="5" data-fill-palette-color="accent"></rect><rect x="26" y="44" fill="#780000" width="23" height="5" data-fill-palette-color="accent"></rect></g><g fill="#780000" data-fill-palette-color="accent"><rect x="19" y="26" fill="#780000" width="5" height="23" data-fill-palette-color="accent"></rect><rect x="10" y="26" fill="#780000" width="5" height="23" data-fill-palette-color="accent"></rect><rect x="1" y="26" fill="#780000" width="5" height="23" data-fill-palette-color="accent"></rect></g><g fill="#780000" data-fill-palette-color="accent"><rect x="44" y="1" fill="#780000" width="5" height="23" data-fill-palette-color="accent"></rect><rect x="35" y="1" fill="#780000" width="5" height="23" data-fill-palette-color="accent"></rect><rect x="26" y="1" fill="#780000" width="5" height="23" data-fill-palette-color="accent"></rect></g></g></svg></g></svg></g></svg></g><defs></defs></svg><rect width="395.52" height="54.49214088591265" fill="none" stroke="none" visibility="hidden"></rect></g></svg></g></svg>