<svg xmlns="http://www.w3.org/2000/svg" style="overflow: visible;" data-bbox="21.31138545953354 190.6518682075138 469.00292485853674 106.63456067906654" viewBox="21.31 190.65 469 106.63">     
      <g transform="matrix(0.07789629697799683, 0, 0, 0.07789629697799683, 4.908749103546143, 185.5465545654297)" fill="#20c5a8" data-uid="o_f9bebhgdm_8">             
        <svg id="Layer_1" data-name="Layer 1" xmlns="http://www.w3.org/2000/svg" viewBox="0 0 1500 1500" width="1500" height="1500" data-uid="o_f9bebhgdm_9">                 
          <path class="cls-1" d="m611.99 621.53M1289.42 65.55l-167.83 203.9c43.33 8.01 89.08 17.19 137.9 27.55v576.75c0 126.52-55.2 235.37-157.27 310.12-101.9 74.64-235.9 151.05-365.26 198.41-41.63-15.24-83.75-33.49-125.11-53.72l375.9-217.03c70.51-40.7 121.32-107.44 142.37-185.99 21.02-78.55 10.39-161.72-30.31-232.2-40.69-70.49-107.4-121.28-185.94-142.34-78.57-21.06-161.76-10.42-232.25 30.28l-69.67 40.22c-26 15.07-34.95 48.4-19.93 74.43 15.03 26.02 48.37 34.93 74.4 19.91l69.63-40.21c45.43-26.24 99.01-33 149.63-19.44 50.59 13.55 93.6 46.2 119.81 91.61 26.21 45.4 32.99 98.98 19.43 149.56-13.58 50.63-46.23 93.63-91.62 119.84l-722.73 417.27 187.2-231.95c-8.92-6.21-17.62-12.42-26.08-18.65-102.07-74.75-157.26-183.6-157.26-310.12V296.99c237.36-50.37 401.05-72.84 572.92-67.35l-301.24 173.92c-70.48 40.7-121.3 107.44-142.33 185.98-21.05 78.56-10.4 161.72 30.27 232.21 40.71 70.49 107.42 121.28 185.97 142.34 78.54 21.05 161.74 10.42 232.24-30.28l69.67-40.22c26-15.07 34.95-48.41 19.93-74.42-15.03-26.02-48.37-34.94-74.4-19.92l-69.65 40.22c-45.41 26.22-98.99 33-149.61 19.43-50.59-13.54-93.59-46.19-119.81-91.61-26.22-45.4-32.99-98.98-19.43-149.56 13.56-50.62 46.23-93.63 91.62-119.85 231.71-133.76 517.14-298.57 748.84-432.34Z" fill="#20c5a8" fill-rule="evenodd" data-uid="o_f9bebhgdm_10"/>
        </svg>
      </g>
</svg>